<?xml version="1.0" encoding="UTF-8"?>
<svg viewBox="0 0 1040 680" xmlns="http://www.w3.org/2000/svg" role="img" aria-labelledby="loop-triage-to-fix.fr-title loop-triage-to-fix.fr-desc">
      <title id="loop-triage-to-fix.fr-title">Du tri à la correction</title>
      <desc id="loop-triage-to-fix.fr-desc">Six stations s'enchaînent dans le sens horaire, des retours négatifs signalés au tri par LLM, à une correction ciblée par un agent de code et un test de non-régression, jusqu'à la livraison et un nouveau tri sur un lot récent, toutes écrivant dans un même journal d'interaction partagé, l'étape de l'agent de code étant mise en évidence comme le point de contrôle revu.</desc>
      <defs><style>@import url('https://fonts.googleapis.com/css2?family=Inter:wght@400;600;700;900&amp;family=JetBrains+Mono:wght@500;600&amp;display=swap');
        .ring { fill: none; stroke: #45536b; stroke-width: 1.2; }
        .spoke { fill: none; stroke: #5b6b84; stroke-width: 1; stroke-dasharray: 5 4; }
        .station { fill: #f2f5fa; stroke: #0f172a; stroke-width: 1; }
        .station.focal { fill: rgba(4,120,87,0.08); stroke: #047857; stroke-width: 1.2; }
        .hub { fill: #0f172a; }
        .node-name { fill: #0f172a; font: 600 12px 'Inter', sans-serif; text-anchor: middle; }
        .focal-name { fill: #047857; }
        .sublabel { fill: #5b6b84; font: 400 8px 'JetBrains Mono', monospace; text-anchor: middle; }
        .hub-name { fill: #f2f5fa; font: 600 15px 'Inter', sans-serif; text-anchor: middle; }
        .hub-sub { fill: #f2f5fa; opacity: 0.72; font: 400 8px 'JetBrains Mono', monospace; text-anchor: middle; }
        .arrow-label { fill: #5b6b84; font: 400 8px 'JetBrains Mono', monospace; letter-spacing: 0.06em; text-anchor: middle; }
      </style>
        <pattern id="dots" width="22" height="22" patternUnits="userSpaceOnUse"><circle cx="1" cy="1" r="0.9" fill="#0f172a" fill-opacity="0.10"/></pattern>
        <marker id="arrow" markerWidth="8" markerHeight="6" refX="7" refY="3" orient="auto"><polygon points="0 0, 8 3, 0 6" fill="#45536b"/></marker>
        <marker id="arrow-accent" markerWidth="8" markerHeight="6" refX="7" refY="3" orient="auto"><polygon points="0 0, 8 3, 0 6" fill="#047857"/></marker>
        <marker id="arrow-soft" markerWidth="8" markerHeight="6" refX="7" refY="3" orient="auto"><polygon points="0 0, 8 3, 0 6" fill="#5b6b84"/></marker>
      </defs>
      <rect width="1040" height="680" fill="#f2f5fa"/>
      <rect width="1040" height="680" fill="url(#dots)" opacity="0.55"/>

      <!-- Solid clockwise ring: six arcs on the same r=240 station circle. -->
      <path class="ring" d="M600 113.726 A240 240 0 0 1 704.969 187.073" marker-end="url(#arrow)"/>
      <path class="ring" d="M743.285 252 A240 240 0 0 1 743.722 426.882" marker-end="url(#arrow)"/>
      <path class="ring" d="M705.731 492 A240 240 0 0 1 601.130 565.871" marker-end="url(#arrow)"/>
      <path class="ring" d="M440 566.274 A240 240 0 0 1 335.031 492.927" marker-end="url(#arrow)"/>
      <path class="ring" d="M296.715 428 A240 240 0 0 1 296.278 253.118" marker-end="url(#arrow)"/>
      <path class="ring" d="M334.269 188 A240 240 0 0 1 438.870 114.129" marker-end="url(#arrow)"/>

      <!-- Dashed write-backs: station inner edge to 6px before the hub stroke. -->
      <path class="spoke" d="M520 132 V280" marker-end="url(#arrow-soft)"/>
      <path class="spoke" d="M672 252 L616 284" marker-end="url(#arrow-soft)"/>
      <path class="spoke" d="M672 428 L616 396" marker-end="url(#arrow-soft)"/>
      <path class="spoke" d="M520 548 V400" marker-end="url(#arrow-soft)"/>
      <path class="spoke" d="M368 428 L424 396" marker-end="url(#arrow-soft)"/>
      <path class="spoke" d="M368 252 L424 284" marker-end="url(#arrow-soft)"/>

      <!-- Curated spoke labels sit beside the line with an 8px visible gap. -->
      <rect x="522" y="200" width="44" height="16" rx="4" fill="#f2f5fa"/>
      <text x="544" y="212" class="arrow-label">LIT</text>
      <rect x="440" y="464" width="92" height="16" rx="4" fill="#f2f5fa"/>
      <text x="486" y="476" class="arrow-label">RECOMPTE</text>

      <!-- Stations -->
      <rect class="station" x="440" y="68" width="160" height="64" rx="6"/>
      <text x="520" y="96" class="node-name">Retours négatifs</text><text x="520" y="116" class="sublabel">interactions signalées</text>

      <rect class="station" x="648" y="188" width="160" height="64" rx="6"/>
      <text x="728" y="216" class="node-name">Tri</text><text x="728" y="236" class="sublabel">le LLM classe par catégorie</text>

      <rect class="station focal" x="648" y="428" width="160" height="64" rx="6"/>
      <text x="728" y="456" class="node-name focal-name">Agent de code</text><text x="728" y="476" class="sublabel">Claude Code ou Codex</text>

      <rect class="station" x="440" y="548" width="160" height="64" rx="6"/>
      <text x="520" y="576" class="node-name">Test de non-régression</text><text x="520" y="596" class="sublabel">construit sur le cas réel</text>

      <rect class="station" x="232" y="428" width="160" height="64" rx="6"/>
      <text x="312" y="456" class="node-name">Correction livrée</text><text x="312" y="476" class="sublabel">une catégorie, une couche</text>

      <rect class="station" x="232" y="188" width="160" height="64" rx="6"/>
      <text x="312" y="216" class="node-name">Nouveau lot</text><text x="312" y="236" class="sublabel">même prompt, nouveaux journaux</text>

      <!-- The one shared-state hub. -->
      <rect class="hub" x="420" y="288" width="200" height="104" rx="8"/>
      <text x="520" y="336" class="hub-name">Journal d'interaction</text>
      <text x="520" y="360" class="hub-sub">question, réponse, retour</text>
    </svg>
